<svg width="360" height="360" viewBox="0 0 360 360" fill="none" xmlns="http://www.w3.org/2000/svg">
<g filter="url(#filter0_d_146_468)">
<path d="M180.1 319.1C242.398 319.1 292.9 268.598 292.9 206.3C292.9 144.002 242.398 93.5 180.1 93.5C117.802 93.5 67.2998 144.002 67.2998 206.3C67.2998 268.598 117.802 319.1 180.1 319.1Z" fill="#E2E8F0"/>
<path d="M180.1 319.1C242.398 319.1 292.9 268.598 292.9 206.3C292.9 144.002 242.398 93.5 180.1 93.5C117.802 93.5 67.2998 144.002 67.2998 206.3C67.2998 268.598 117.802 319.1 180.1 319.1Z" stroke="#E2E8F0" stroke-width="0.95"/>
</g>
<path d="M86.7998 296.3L93.0998 302.4C91.8998 303.7 90.2998 303.5 88.0998 303.1C84.9998 302.5 81.6998 301.6 79.4998 303.9C77.6998 305.8 77.8998 308.5 80.2998 310.8C81.8998 312.3 83.8998 313.2 85.9998 313.5L86.2998 311.4C84.6998 311.1 83.1998 310.4 81.9998 309.4C80.5998 308.1 80.4998 306.6 81.3998 305.6C82.5998 304.4 84.5998 304.8 86.9998 305.3C90.0998 305.9 93.1998 306.5 95.5998 303.9L96.5998 302.9L88.0998 294.8L86.7998 296.3ZM82.7998 295.2C85.0998 293.3 84.6998 290.2 82.2998 287.3C79.8998 284.4 76.8998 283.4 74.5998 285.2C72.5998 286.8 72.8998 289.2 73.4998 291.3C71.8998 290.6 70.1998 290.2 68.5998 291.5C66.6998 293 66.7998 295.8 68.8998 298.3C70.9998 300.8 73.5998 301.5 75.4998 299.9C76.9998 298.6 76.9998 296.8 76.6998 295.2C78.4998 296.1 80.7998 296.8 82.7998 295.2ZM76.1998 287.4C77.4998 286.3 79.3998 286.9 80.7998 288.6C82.1998 290.3 82.3998 292.2 81.0998 293.3C79.6998 294.5 77.6998 293.6 75.8998 292.6C75.1998 290.6 74.7998 288.5 76.1998 287.4ZM74.0998 297.8C73.1998 298.6 71.5998 298.4 70.4998 297C69.3998 295.6 69.4998 294 70.3998 293.3C71.5998 292.3 73.1998 293.1 74.3998 293.8C74.7998 295 75.2998 296.8 74.0998 297.8ZM51.3998 215.6L52.3998 224.3C50.5998 224.5 49.5998 223.3 48.1998 221.6C46.1998 219.2 44.2998 216.4 41.0998 216.7C38.4998 217 36.8998 219.2 37.2998 222.5C37.5998 224.6 38.4998 226.6 39.8998 228.2L41.4998 226.8C40.4998 225.6 39.7998 224.1 39.4998 222.5C39.2998 220.6 40.1998 219.4 41.4998 219.3C43.1998 219.1 44.4998 220.7 45.9998 222.7C47.9998 225.2 49.9998 227.6 53.4998 227.2L54.8998 227L53.5998 215.3L51.3998 215.6ZM48.9998 212.2C51.8998 212.2 53.6998 209.6 53.6998 205.8C53.6998 202 52.0998 199.3 49.0998 199.3C46.5998 199.3 45.1998 201.3 44.2998 203.2C43.5998 201.7 42.3998 200.2 40.3998 200.2C37.9998 200.2 36.2998 202.3 36.2998 205.6C36.2998 208.9 37.8998 211 40.2998 211.1C42.2998 211.1 43.3998 209.7 44.1998 208.2C45.1998 210.1 46.4998 212.1 48.9998 212.2ZM48.9998 201.9C50.6998 201.9 51.7998 203.6 51.6998 205.8C51.6998 207.9 50.5998 209.6 48.8998 209.6C47.0998 209.6 46.0998 207.7 45.3998 205.7C46.0998 203.8 47.0998 201.9 48.9998 201.9ZM40.6998 208.5C39.4998 208.5 38.3998 207.3 38.3998 205.6C38.3998 203.8 39.4998 202.7 40.7998 202.7C42.3998 202.7 43.0998 204.4 43.4998 205.7C42.9998 206.9 42.1998 208.5 40.6998 208.5ZM53.9998 196L54.2998 193.3L51.0998 193L50.7998 195.7L53.9998 196ZM46.2998 187.7L47.3998 186.5C46.9998 185.3 46.8998 184.1 46.9998 182.9C47.1998 181.1 48.7998 179.7 50.5998 179.9C50.6998 179.9 50.7998 179.9 50.8998 179.9C52.8998 180.3 53.8998 182.3 53.4998 184.3C53.0998 185.8 52.2998 187.2 51.1998 188.3L52.8998 189.8C54.2998 188.3 55.2998 186.5 55.7998 184.4C56.5998 180.4 54.1998 177.9 51.3998 177.4C48.4998 176.8 45.6998 178.7 45.0998 181.5C45.0998 181.7 44.9998 181.8 44.9998 182C44.7998 182.9 44.7998 183.9 44.9998 184.9L40.7998 183.7L42.1998 176.3L40.0998 175.9L38.2998 185.3L46.2998 187.7ZM88.1998 116.7L82.2998 123.2C80.9998 122 81.0998 120.4 81.4998 118.3C81.9998 115.2 82.7998 111.9 80.3998 109.7C78.4998 108 75.7998 108.2 73.5998 110.7C72.1998 112.3 71.2998 114.3 71.0998 116.5L73.1998 116.7C73.3998 115.1 74.0998 113.6 75.0998 112.4C76.3998 111 77.7998 110.8 78.7998 111.7C79.9998 112.8 79.6998 114.9 79.2998 117.3C78.7998 120.5 78.2998 123.6 80.8998 125.9L81.9998 126.9L89.8998 118.2L88.1998 116.7ZM93.2998 112.4C92.8998 112.8 92.3998 113.1 91.8998 113.4L92.7998 115.4C93.4998 115 94.0998 114.6 94.6998 114.1C98.3998 110.9 99.1998 105.3 94.7998 100.3C92.4998 97.7 88.6998 96.3 85.2998 99.2C82.7998 101.1 82.2998 104.7 84.1998 107.2C84.2998 107.3 84.3998 107.4 84.4998 107.5C86.2998 109.7 89.4998 110.1 91.6998 108.3C91.7998 108.2 91.9998 108.1 92.0998 108C93.2998 107 94.0998 105.5 94.2998 103.9C96.3998 107.6 95.1998 110.7 93.2998 112.4ZM91.1998 106.1C89.8998 107.4 87.8998 107.3 86.5998 106.1C86.4998 106 86.3998 105.9 86.3998 105.8C85.0998 104.4 85.1998 102.3 86.4998 101C86.5998 100.9 86.5998 100.9 86.6998 100.8C88.4998 99.2 90.8998 99.8 92.6998 101.8L92.7998 101.9C92.9998 103.4 92.3998 105 91.1998 106.1ZM167.5 78.9L158.8 80.1C158.5 78.3 159.7 77.2 161.3 75.8C163.7 73.8 166.4 71.7 166 68.5C165.6 65.9 163.4 64.4 160.1 64.9C158 65.2 156 66.2 154.5 67.7L155.9 69.2C157.1 68.1 158.5 67.4 160.1 67.1C162 66.8 163.2 67.7 163.4 69C163.6 70.7 162.1 72 160.2 73.7C157.8 75.8 155.4 77.9 155.9 81.3L156.1 82.7L167.7 81L167.5 78.9ZM174.1 78.8C173.5 78.8 173 78.8 172.4 78.6L171.8 80.7C172.6 80.9 173.3 80.9 174.1 80.9C179 80.8 183.2 77.1 183 70.4C182.9 66.9 180.9 63.4 176.4 63.5C173.3 63.4 170.6 65.8 170.5 68.9C170.5 69 170.5 69.2 170.5 69.3C170.4 72.1 172.7 74.4 175.5 74.5C175.7 74.5 175.8 74.5 176 74.5C177.6 74.5 179.2 73.8 180.3 72.7C179.6 77.1 176.7 78.8 174.1 78.8ZM176.6 72.6C174.8 72.8 173.3 71.4 173.1 69.7C173.1 69.6 173.1 69.5 173.1 69.3C173 67.4 174.4 65.8 176.3 65.7C176.4 65.7 176.5 65.7 176.6 65.7C179 65.6 180.5 67.7 180.5 70.3V70.4C179.7 71.8 178.2 72.6 176.6 72.6ZM186.3 80.7L189 80.9L189.2 77.7L186.5 77.5L186.3 80.7ZM194.2 72.8L195.5 73.8C196.6 73.3 197.9 73.2 199.1 73.3C200.9 73.4 202.4 74.9 202.3 76.8C202.3 76.9 202.3 77 202.3 77.1C202 79.1 200.1 80.2 198 79.9C196.5 79.6 195.1 78.8 193.9 77.8L192.5 79.5C194 80.9 195.9 81.8 198 82.1C202.1 82.7 204.4 80.3 204.9 77.4C205.4 74.5 203.4 71.7 200.5 71.2C200.3 71.2 200.2 71.2 200 71.1C199.1 71 198.1 71 197.1 71.2L198.1 66.9L205.5 68L205.8 65.8L196.3 64.4L194.2 72.8ZM259.5 106.4C260.2 108.5 261.4 110.5 263.1 112C266.3 114.8 269.3 114 270.9 112.1C272.3 110.4 272.3 107.9 271 106.2C273.1 107 274.8 106.5 275.8 105.3C277.2 103.7 277.2 101.2 274.6 99C273 97.7 271.1 96.9 269 96.7L268.7 98.7C270.2 98.9 271.6 99.5 272.8 100.5C274.1 101.7 274.4 102.9 273.6 103.9C272.4 105.3 270.2 104.4 268.7 103L268.1 102.4L266.6 104.1L267.1 104.6C268.7 106 270.5 108.5 268.9 110.4C267.7 111.7 265.8 111.5 264.3 110.2C263.1 109 262.2 107.5 261.6 105.9L259.5 106.4ZM287.2 111.4C284.3 108.2 280.5 108.6 276.4 112.3C272.3 116 271.4 119.8 274.3 123C277.2 126.2 281 125.8 285.1 122.1C289.2 118.4 290 114.7 287.2 111.4ZM275.8 121.6C274 119.6 275 117 278.1 114.2C281.3 111.4 283.9 110.7 285.7 112.8C287.5 114.9 286.5 117.3 283.4 120.1C280.2 123 277.6 123.6 275.8 121.6ZM304.2 174.6C303.4 176.7 303.3 179 303.7 181.2C304.6 185.3 307.4 186.5 309.9 186C312 185.5 313.5 183.5 313.5 181.3C314.7 183.2 316.3 183.8 317.9 183.5C319.9 183.1 321.4 181.1 320.7 177.8C320.2 175.8 319.2 174 317.6 172.6L316.2 174C317.3 175.1 318.1 176.4 318.4 177.9C318.8 179.6 318.2 180.8 316.9 181.1C315.1 181.5 313.9 179.4 313.5 177.4L313.3 176.6L311.1 177.1L311.2 177.8C311.6 179.9 311.5 183 309.1 183.5C307.4 183.9 306 182.6 305.5 180.5C305.2 178.8 305.4 177.1 306 175.4L304.2 174.6ZM323.3 195.4C322.9 191.1 319.6 189.1 314.1 189.6C308.6 190.1 305.7 192.6 306 196.9C306.3 201.2 309.7 203.1 315.2 202.7C320.7 202.3 323.6 199.7 323.3 195.4ZM308 196.6C307.8 193.9 310.1 192.5 314.3 192.1C318.5 191.8 321 192.8 321.2 195.5C321.4 198.2 319.2 199.6 314.9 200C310.7 200.4 308.3 199.3 308 196.6ZM306.7 206.7V209.4H309.9V206.7H306.7ZM315.1 214.2L314.1 215.5C314.6 216.6 314.9 217.8 314.8 219.1C314.8 220.9 313.3 222.4 311.5 222.5C311.4 222.5 311.3 222.5 311.2 222.5C309.1 222.3 308 220.4 308.2 218.4C308.4 216.9 309.1 215.4 310.1 214.2L308.3 212.9C307 214.5 306.2 216.4 306 218.5C305.6 222.6 308.2 224.8 311 225.1C313.9 225.4 316.6 223.3 316.9 220.4C316.9 220.2 316.9 220.1 316.9 219.9C317 218.9 316.9 218 316.6 217.1L320.9 217.9L320.2 225.4L322.4 225.6L323.3 216L315.1 214.2ZM282.2 285.1C280.1 285.8 278.2 287.1 276.7 288.7C274 291.9 274.8 294.9 276.7 296.5C278.4 297.9 280.9 297.8 282.6 296.5C281.8 298.6 282.3 300.3 283.5 301.3C285.1 302.6 287.6 302.6 289.8 300C291.1 298.4 291.9 296.4 292 294.4L290 294.2C289.8 295.7 289.2 297.2 288.3 298.4C287.2 299.7 285.9 300.1 284.9 299.2C283.5 298 284.4 295.8 285.7 294.2L286.2 293.6L284.5 292.2L284 292.7C282.6 294.3 280.1 296.2 278.2 294.6C276.8 293.5 277 291.5 278.4 290C279.6 288.8 281 287.8 282.7 287.3L282.2 285.1ZM266.7 299.7L278.4 311.7L280.1 310L281.5 305.4L279.5 304.9L278.5 308.1L268.5 297.8L266.7 299.7Z" fill="white"/>
<path d="M111.8 269.6C112.1 269.9 112.3 270.3 112.5 270.6L113.7 270.1C113.4 269.6 113.1 269.1 112.8 268.7C110.6 266.1 106.4 265.4 102.6 268.8C100.7 270.5 99.6001 273.3 101.7 275.8C103.1 277.6 105.7 278 107.6 276.5C107.7 276.4 107.8 276.4 107.8 276.3C109.5 275 109.7 272.6 108.4 270.9C108.3 270.8 108.2 270.7 108.1 270.6C107.3 269.6 106.1 269 104.8 269C107.8 267.2 110.4 268 111.8 269.6ZM107 271.3C108 272.3 108 274 106.9 275C106.8 275.1 106.8 275.1 106.7 275.2C105.6 276.3 103.8 276.2 102.8 275.1C102.7 275 102.7 275 102.7 274.9C101.4 273.3 102 271.4 103.6 270H103.7C104.8 269.8 106.2 270.3 107 271.3ZM101.5 265.5L101.4 264.5C100.5 264.1 99.8001 263.5 99.2001 262.7C98.2001 261.5 98.4001 259.8 99.6001 258.9C99.7001 258.8 99.7001 258.8 99.8001 258.7C101.1 257.8 102.9 258.2 103.8 259.6C103.8 259.6 103.8 259.7 103.9 259.7C104.5 260.7 104.8 261.8 104.8 263L106.2 262.9C106.2 261.4 105.7 260 104.9 258.8C103.8 256.8 101.3 256.1 99.3001 257.2C99.2001 257.3 99.1001 257.3 99.0001 257.4C97.2001 258.6 96.6001 261.1 97.9001 262.9C98.0001 263 98.0001 263.1 98.1001 263.2C98.5001 263.8 99.1001 264.4 99.8001 264.8L96.5001 266.6L93.3001 262L92.2001 262.8L96.1001 268.5L101.5 265.5ZM87.6001 255.2C89.0001 258 91.9001 258.3 95.6001 256.4C99.3001 254.5 100.6 252 99.2001 249.2C97.8001 246.4 94.9001 246.1 91.3001 248C87.5001 249.9 86.1001 252.4 87.6001 255.2ZM98.0001 249.7C99.0001 251.7 97.7001 253.4 94.8001 254.9C91.9001 256.4 89.7001 256.5 88.7001 254.5C87.7001 252.5 89.0001 250.8 91.9001 249.3C94.8001 247.9 97.0001 247.8 98.0001 249.7ZM88.4001 191.7C88.3001 192.1 88.2001 192.5 88.0001 192.9L89.2001 193.5C89.4001 193 89.6001 192.4 89.7001 191.9C90.3001 188.5 88.3001 184.9 83.3001 184C80.7001 183.6 77.9001 184.5 77.3001 187.7C76.8001 190 78.2001 192.2 80.4001 192.7C80.5001 192.7 80.6001 192.7 80.7001 192.8C82.8001 193.3 84.8001 192 85.3001 189.9C85.3001 189.8 85.4001 189.6 85.4001 189.5C85.6001 188.3 85.4001 187 84.6001 185.9C87.8001 187.2 88.8001 189.7 88.4001 191.7ZM84.2001 189.1C84.0001 190.5 82.7001 191.6 81.3001 191.4C81.2001 191.4 81.1001 191.4 81.0001 191.3C79.5001 191.1 78.4001 189.7 78.6001 188.2C78.6001 188.1 78.6001 188.1 78.6001 188C79.0001 186 80.9001 185.3 82.9001 185.6H83.0001C84.0001 186.5 84.4001 187.8 84.2001 189.1ZM82.5001 172.8L81.4001 172.5L79.1001 180.3L80.4001 180.7L82.2001 174.6C82.6001 175.2 86.8001 180.7 91.7001 182.1L92.2001 180.5C86.6001 178.8 82.5001 172.8 82.5001 172.8ZM84.0001 165.2C82.8001 168.1 84.3001 170.5 88.1001 172.1C91.9001 173.7 94.7001 173.1 95.9001 170.2C97.1001 167.3 95.6001 164.9 91.8001 163.3C88.0001 161.8 85.2001 162.3 84.0001 165.2ZM94.8001 169.8C93.9001 171.8 91.7001 172 88.7001 170.7C85.7001 169.4 84.3001 167.8 85.1001 165.7C85.9001 163.6 88.2001 163.6 91.2001 164.8C94.2001 166.1 95.6001 167.7 94.8001 169.8ZM133.3 125.4C132.9 125.6 132.5 125.8 132.1 125.9L132.4 127.2C132.9 127 133.5 126.8 134 126.5C137 124.8 138.5 120.9 135.9 116.5C134.6 114.3 132 112.6 129.2 114.2C127.1 115.2 126.3 117.7 127.3 119.8C127.3 119.9 127.4 120 127.4 120.1C128.4 122 130.7 122.7 132.5 121.8C132.6 121.7 132.7 121.7 132.8 121.6C133.9 121 134.7 119.9 135 118.7C136.4 122 135.1 124.4 133.3 125.4ZM132.6 120.4C131.4 121.2 129.8 120.8 129 119.6C128.9 119.5 128.9 119.4 128.9 119.3C128.1 118 128.5 116.3 129.8 115.4C129.9 115.4 129.9 115.3 130 115.3C131.8 114.3 133.6 115.3 134.6 117.1V117.2C134.5 118.6 133.8 119.8 132.6 120.4ZM143.2 120.2C142.8 120.4 142.4 120.5 142 120.6L142.1 121.9C142.7 121.8 143.2 121.7 143.7 121.4C146.9 120.1 148.8 116.4 146.8 111.7C145.8 109.3 143.4 107.4 140.5 108.6C138.3 109.4 137.2 111.8 138 113.9C138 114 138.1 114.1 138.1 114.2C138.8 116.2 141 117.2 143 116.5C143.1 116.5 143.2 116.4 143.4 116.3C144.6 115.8 145.5 114.9 146 113.7C146.7 117.3 145.1 119.4 143.2 120.2ZM143.2 115.2C141.9 115.8 140.3 115.3 139.7 114C139.7 113.9 139.6 113.8 139.6 113.7C138.9 112.3 139.5 110.6 140.9 110C141 110 141 109.9 141.1 109.9C143 109.1 144.6 110.3 145.4 112.2V112.3C145.2 113.6 144.4 114.7 143.2 115.2ZM153 104.4C150 105.2 149.1 107.9 150.2 111.9C151.3 115.9 153.5 117.7 156.5 116.9C159.5 116.1 160.4 113.4 159.3 109.4C158.2 105.4 156.1 103.5 153 104.4ZM156.2 115.7C154.1 116.3 152.6 114.6 151.7 111.5C150.8 108.4 151.2 106.2 153.4 105.6C155.6 105 157 106.7 157.8 109.8C158.7 112.9 158.3 115.1 156.2 115.7ZM220.5 121.8L225.6 110.3L224.3 109.7L220.8 110L221 111.2L223.5 111L219 121.1L220.5 121.8ZM233.5 114.2C230.8 112.7 228.2 113.9 226.2 117.5C224.2 121.1 224.4 124 227.1 125.5C229.8 127 232.4 125.8 234.4 122.2C236.5 118.6 236.3 115.7 233.5 114.2ZM227.8 124.4C225.9 123.3 226 121.1 227.6 118.3C229.2 115.5 231 114.2 233 115.3C235 116.4 234.8 118.6 233.2 121.4C231.5 124.2 229.7 125.5 227.8 124.4ZM236.2 131.1L243.5 120.8L242.3 120L238.9 119.6L238.8 120.9L241.3 121.2L234.9 130.2L236.2 131.1ZM250.6 126.2C248.2 124.2 245.5 124.9 242.8 128C240.1 131.1 239.8 134 242.2 136C244.6 138 247.3 137.3 250 134.2C252.6 131.1 252.9 128.2 250.6 126.2ZM242.9 135.1C241.2 133.7 241.8 131.5 243.9 129.1C246 126.7 248.1 125.8 249.7 127.2C251.3 128.6 250.8 130.8 248.7 133.2C246.6 135.6 244.6 136.5 242.9 135.1ZM268.2 172.8L279.9 168.1L279.4 166.8L276.7 164.6L276 165.6L277.9 167.2L267.7 171.3L268.2 172.8ZM283 176.4C282.1 173.4 279.4 172.5 275.4 173.7C271.4 174.9 269.6 177.1 270.5 180.1C271.4 183.1 274.1 184 278.1 182.8C282 181.6 283.8 179.4 283 176.4ZM271.7 179.7C271.1 177.6 272.7 176.1 275.8 175.2C278.9 174.3 281.1 174.7 281.7 176.8C282.3 178.9 280.7 180.4 277.6 181.3C274.5 182.2 272.3 181.8 271.7 179.7ZM273.5 186.1C272.9 187.6 272.7 189.2 273 190.8C273.5 193.8 275.6 194.8 277.4 194.5C279.1 194.1 280.3 192.7 280.3 191C280.8 192.3 282.2 193.1 283.6 192.9C285.1 192.6 286.3 191.2 285.9 188.8C285.6 187.4 284.9 186 283.9 185L283 185.8C283.8 186.6 284.3 187.6 284.6 188.8C284.8 190.2 284.3 191.2 283.3 191.4C281.8 191.6 280.9 190.1 280.6 188.5L280.5 187.9L279 188L279.1 188.6C279.4 190.3 279.1 192.7 277.1 193C275.6 193.2 274.5 192.1 274.2 190.5C274.1 189.2 274.2 188 274.7 186.8L273.5 186.1ZM287.1 201.4C287 198.3 284.5 196.8 280.4 197C276.2 197.2 274 198.9 274.1 202.1C274.2 205.3 276.7 206.7 280.8 206.5C285 206.2 287.3 204.5 287.1 201.4ZM275.4 201.9C275.3 199.7 277.2 198.6 280.5 198.5C283.8 198.4 285.8 199.2 285.9 201.4C286 203.6 284.1 204.6 280.8 204.8C277.5 205 275.5 204.1 275.4 201.9ZM265.5 246.3L277 251.5L277.6 250.2L277.3 246.7L276.1 246.9L276.2 249.4L266.2 244.8L265.5 246.3ZM273 259.4C274.6 256.7 273.3 254.1 269.8 252C266.3 249.9 263.4 250.1 261.8 252.8C260.2 255.5 261.4 258.1 265 260.2C268.6 262.3 271.4 262.1 273 259.4ZM262.8 253.5C263.9 251.6 266.1 251.7 268.9 253.4C271.7 255.1 272.9 256.9 271.8 258.8C270.7 260.7 268.5 260.5 265.7 258.9C262.9 257.3 261.7 255.4 262.8 253.5ZM263.2 263L262.3 263.4C262.2 264.3 261.9 265.2 261.3 266C260.5 267.3 258.8 267.7 257.6 266.9C257.5 266.9 257.5 266.8 257.4 266.7C256.2 265.7 255.9 263.9 256.9 262.6C256.9 262.6 256.9 262.5 257 262.5C257.7 261.6 258.7 261 259.8 260.6L259.3 259.3C257.9 259.8 256.7 260.7 255.8 261.8C254.3 263.5 254.4 266.1 256.1 267.6C256.2 267.7 256.3 267.8 256.4 267.9C258.1 269.3 260.6 269 262 267.2C262.1 267.1 262.1 267 262.2 266.9C262.7 266.3 263 265.6 263.1 264.8L265.9 267.3L262.5 271.8L263.6 272.6L267.7 267.1L263.2 263ZM257.9 279.5C260.1 277.2 259.5 274.4 256.5 271.6C253.5 268.8 250.7 268.3 248.5 270.5C246.3 272.7 246.9 275.5 249.9 278.4C252.9 281.3 255.7 281.8 257.9 279.5ZM249.4 271.4C250.9 269.8 253 270.5 255.4 272.7C257.8 274.9 258.5 277 257 278.6C255.5 280.2 253.4 279.5 251 277.3C248.6 275.1 247.9 273 249.4 271.4Z" fill="#1E2023"/>
<path d="M57.1001 306.7L40.9001 319.7L39.6001 318.1L55.8001 305.1L57.1001 306.7Z" fill="#BCBCBC"/>
<path d="M52.7002 300.9L35.9002 313.2L34.7002 311.5L51.5002 299.2L52.7002 300.9Z" fill="#BCBCBC"/>
<path d="M48.5 295L31.1 306.5L30 304.8L47.4 293.3L48.5 295Z" fill="#BCBCBC"/>
<path d="M44.6001 288.9L26.7001 299.6L25.6001 297.8L43.5001 287.1L44.6001 288.9Z" fill="#BCBCBC"/>
<path d="M37.5999 276.2L18.7999 285.2L17.8999 283.3L36.6999 274.3L37.5999 276.2Z" fill="#BCBCBC"/>
<path d="M34.6001 269.6L15.4001 277.7L14.6001 275.8L33.8001 267.7L34.6001 269.6Z" fill="#BCBCBC"/>
<path d="M31.9002 262.8L12.4002 270L11.7002 268.1L31.2002 260.9L31.9002 262.8Z" fill="#BCBCBC"/>
<path d="M29.5001 256L9.7001 262.3L9.1001 260.3L28.9001 254L29.5001 256Z" fill="#BCBCBC"/>
<path d="M25.7 242L5.4 246.4L5 244.4L25.3 240L25.7 242Z" fill="#BCBCBC"/>
<path d="M24.1999 234.8L3.6999 238.3L3.3999 236.3L23.8999 232.8L24.1999 234.8Z" fill="#BCBCBC"/>
<path d="M23.1002 227.7L2.5002 230.3L2.2002 228.3L22.8002 225.7L23.1002 227.7Z" fill="#BCBCBC"/>
<path d="M22.4 220.5L1.7 222.1L1.5 220.1L22.2 218.5L22.4 220.5Z" fill="#BCBCBC"/>
<path d="M21.8 205.9L1 205.7V203.6L21.8 203.9V205.9Z" fill="white"/>
<path d="M22.0002 198.7L1.2002 197.5L1.3002 195.4L22.1002 196.6L22.0002 198.7Z" fill="#BCBCBC"/>
<path d="M22.4998 191.4L1.7998 189.2L1.9998 187.2L22.6998 189.4L22.4998 191.4Z" fill="#BCBCBC"/>
<path d="M23.3998 184.2L2.7998 181.1L3.0998 179.1L23.6998 182.2L23.3998 184.2Z" fill="#BCBCBC"/>
<path d="M26.2 170L6 165L6.5 163L26.7 168L26.2 170Z" fill="#BCBCBC"/>
<path d="M28.0001 163L8.1001 157.1L8.7001 155.1L28.6001 161L28.0001 163Z" fill="#BCBCBC"/>
<path d="M30.2001 156L10.6001 149.2L11.3001 147.3L31.0001 154.1L30.2001 156Z" fill="#BCBCBC"/>
<path d="M32.6999 149.2L13.3999 141.5L14.1999 139.6L33.4999 147.3L32.6999 149.2Z" fill="#BCBCBC"/>
<path d="M38.6001 136L20.1001 126.5L21.0001 124.7L39.5001 134.2L38.6001 136Z" fill="#BCBCBC"/>
<path d="M41.9999 129.5L23.8999 119.2L24.8999 117.4L42.9999 127.8L41.9999 129.5Z" fill="#BCBCBC"/>
<path d="M45.7002 123.3L28.2002 112.2L29.3002 110.5L46.9002 121.6L45.7002 123.3Z" fill="#BCBCBC"/>
<path d="M49.7002 117.2L32.7002 105.3L33.9002 103.6L50.9002 115.5L49.7002 117.2Z" fill="#BCBCBC"/>
<path d="M58.5001 105.7L42.6001 92.2L43.9001 90.6L59.8001 104L58.5001 105.7Z" fill="#BCBCBC"/>
<path d="M63.2999 100.2L47.8999 86.2L49.2999 84.7L64.6999 98.7L63.2999 100.2Z" fill="#BCBCBC"/>
<path d="M68.3002 95L53.7002 80.1L55.2002 78.7L69.8002 93.5L68.3002 95Z" fill="white"/>
<path d="M186.7 48.9L187.7 28.1L189.8 28.2L188.8 49L186.7 48.9Z" fill="#BCBCBC"/>
<path d="M193.9 49.4L195.9 28.7L197.9 28.9L195.9 49.6L193.9 49.4Z" fill="#BCBCBC"/>
<path d="M201.1 50.2L204 29.6L206 29.9L203.1 50.5L201.1 50.2Z" fill="#BCBCBC"/>
<path d="M208.3 51.3L212.1 30.8L214.1 31.2L210.3 51.7L208.3 51.3Z" fill="#BCBCBC"/>
<path d="M222.5 54.6L228.2 34.6L230.2 35.2L224.5 55.2L222.5 54.6Z" fill="#BCBCBC"/>
<path d="M229.4 56.7L236 37L238 37.7L231.4 57.4L229.4 56.7Z" fill="#BCBCBC"/>
<path d="M236.3 59.1L243.8 39.7L245.7 40.4L238.2 59.8L236.3 59.1Z" fill="#BCBCBC"/>
<path d="M243 61.9L251.4 42.9L253.3 43.7L244.9 62.7L243 61.9Z" fill="#BCBCBC"/>
<path d="M256 68.2L266.1 50L267.9 51L257.8 69.2L256 68.2Z" fill="#BCBCBC"/>
<path d="M262.3 71.9L273.3 54.2L275 55.3L264 73L262.3 71.9Z" fill="#BCBCBC"/>
<path d="M268.4 75.8L280.2 58.6L281.9 59.8L270.1 77L268.4 75.8Z" fill="#BCBCBC"/>
<path d="M274.3 80L286.8 63.4L288.4 64.6L276 81.2L274.3 80Z" fill="#BCBCBC"/>
<path d="M285.6 89.2L299.6 73.8L301.1 75.2L287.1 90.6L285.6 89.2Z" fill="#BCBCBC"/>
<path d="M290.9 94.2L305.6 79.4L307.1 80.8L292.4 95.6L290.9 94.2Z" fill="white"/>
<path d="M295.9 99.4L311.2 85.3L312.6 86.8L297.3 100.9L295.9 99.4Z" fill="#BCBCBC"/>
<path d="M300.8 104.8L316.8 91.5L318.1 93.1L302.1 106.4L300.8 104.8Z" fill="#BCBCBC"/>
<path d="M309.6 116.3L326.7 104.5L327.9 106.2L310.8 118L309.6 116.3Z" fill="#BCBCBC"/>
<path d="M313.7 122.3L331.3 111.3L332.4 113L314.8 124L313.7 122.3Z" fill="#BCBCBC"/>
<path d="M317.4 128.6L335.5 118.4L336.5 120.2L318.4 130.4L317.4 128.6Z" fill="#BCBCBC"/>
<path d="M320.9 134.9L339.5 125.6L340.4 127.4L321.8 136.7L320.9 134.9Z" fill="#BCBCBC"/>
<path d="M326.9 148.2L346.3 140.6L347.1 142.5L327.7 150.1L326.9 148.2Z" fill="#BCBCBC"/>
<path d="M329.4 154.9L349.1 148.2L349.8 150.1L330.1 156.8L329.4 154.9Z" fill="#BCBCBC"/>
<path d="M331.7 161.9L351.7 156.1L352.3 158.1L332.3 163.9L331.7 161.9Z" fill="#BCBCBC"/>
<path d="M333.6 168.9L353.8 164L354.3 166L334.1 170.9L333.6 168.9Z" fill="#BCBCBC"/>
<path d="M336.4 183.1L357 180.1L357.3 182.1L336.7 185.1L336.4 183.1Z" fill="#BCBCBC"/>
<path d="M337.3 190.3L358 188.3L358.2 190.3L337.5 192.3L337.3 190.3Z" fill="#BCBCBC"/>
<path d="M337.9 197.5L358.7 196.4L358.8 198.5L338 199.6L337.9 197.5Z" fill="#BCBCBC"/>
<path d="M338.2 204.8L359 204.6V206.7L338.2 206.9V204.8Z" fill="white"/>
<path d="M337.7 219.3L358.4 221L358.2 223L337.5 221.3L337.7 219.3Z" fill="#BCBCBC"/>
<path d="M337 226.5L357.6 229.2L357.3 231.2L336.7 228.5L337 226.5Z" fill="#BCBCBC"/>
<path d="M335.9 233.7L356.4 237.3L356 239.3L335.5 235.7L335.9 233.7Z" fill="#BCBCBC"/>
<path d="M334.6 240.9L354.9 245.5L354.4 247.5L334.1 242.9L334.6 240.9Z" fill="#BCBCBC"/>
<path d="M330.8 254.9L350.6 261.3L350 263.3L330.2 256.9L330.8 254.9Z" fill="#BCBCBC"/>
<path d="M328.5 261.8L348 269.1L347.3 271L327.8 263.7L328.5 261.8Z" fill="#BCBCBC"/>
<path d="M325.8 268.5L344.9 276.7L344.1 278.6L325 270.4L325.8 268.5Z" fill="#BCBCBC"/>
<path d="M322.8 275.1L341.5 284.2L340.6 286L321.9 276.9L322.8 275.1Z" fill="#BCBCBC"/>
<path d="M316 287.9L333.8 298.7L332.7 300.5L314.9 289.7L316 287.9Z" fill="#BCBCBC"/>
<path d="M312.1 294.1L329.4 305.7L328.3 307.4L311 295.8L312.1 294.1Z" fill="#BCBCBC"/>
<path d="M308 300L324.7 312.3L323.5 314L306.8 301.7L308 300Z" fill="#BCBCBC"/>
<path d="M303.6 305.8L319.7 318.9L318.4 320.5L302.3 307.4L303.6 305.8Z" fill="#BCBCBC"/>
<path d="M41.0002 282.6L22.7002 292.4L21.7002 290.6L40.0002 280.8L41.0002 282.6Z" fill="#BCBCBC"/>
<path d="M27.3998 249L7.2998 254.4L6.7998 252.4L26.8998 247L27.3998 249Z" fill="#BCBCBC"/>
<path d="M24.6002 177.1L4.2002 173L4.6002 171L25.0002 175.1L24.6002 177.1Z" fill="#BCBCBC"/>
<path d="M35.5001 142.5L16.6001 133.9L17.5001 132L36.4001 140.6L35.5001 142.5Z" fill="#BCBCBC"/>
<path d="M54 111.4L37.5 98.7L38.8 97.1L55.3 109.8L54 111.4Z" fill="#BCBCBC"/>
<path d="M179.4 48.8L179.5 28H181.6L181.5 48.8H179.4Z" fill="white"/>
<path d="M215.5 52.8L220.3 32.6L222.3 33.1L217.5 53.3L215.5 52.8Z" fill="#BCBCBC"/>
<path d="M249.6 64.9L258.9 46.3L260.7 47.2L251.4 65.8L249.6 64.9Z" fill="#BCBCBC"/>
<path d="M280.1 84.5L293.4 68.5L295 69.8L281.7 85.8L280.1 84.5Z" fill="#BCBCBC"/>
<path d="M172 48.5L171 27.7L173.1 27.6L174.1 48.4L172 48.5Z" fill="#BCBCBC"/>
<path d="M164.8 49L162.8 28.3L164.8 28.1L166.8 48.8L164.8 49Z" fill="#BCBCBC"/>
<path d="M157.6 49.9L154.7 29.3L156.7 29L159.6 49.6L157.6 49.9Z" fill="#BCBCBC"/>
<path d="M150.4 51.1L146.6 30.6L148.6 30.2L152.4 50.7L150.4 51.1Z" fill="#BCBCBC"/>
<path d="M136.3 54.6L130.6 34.6L132.6 34L138.3 54L136.3 54.6Z" fill="#BCBCBC"/>
<path d="M129.4 56.8L122.8 37L124.8 36.3L131.4 56L129.4 56.8Z" fill="#BCBCBC"/>
<path d="M122.6 59.3L115.1 39.9L117 39.2L124.5 58.6L122.6 59.3Z" fill="#BCBCBC"/>
<path d="M115.9 62.1L107.5 43.1L109.4 42.3L117.8 61.3L115.9 62.1Z" fill="#BCBCBC"/>
<path d="M102.9 68.6L92.7998 50.5L94.5998 49.5L104.7 67.7L102.9 68.6Z" fill="#BCBCBC"/>
<path d="M96.7002 72.4L85.7002 54.7L87.4002 53.6L98.4002 71.3L96.7002 72.4Z" fill="#BCBCBC"/>
<path d="M90.5999 76.4L78.8999 59.2L80.5999 58L92.3999 75.2L90.5999 76.4Z" fill="#BCBCBC"/>
<path d="M84.8002 80.7L72.2002 64.1L73.8002 62.9L86.3002 79.5L84.8002 80.7Z" fill="#BCBCBC"/>
<path d="M73.6001 90L59.6001 74.6L61.1001 73.2L75.1001 88.6L73.6001 90Z" fill="#BCBCBC"/>
<path d="M143.3 52.7L138.5 32.5L140.5 32L145.3 52.2L143.3 52.7Z" fill="#BCBCBC"/>
<path d="M109.3 65.2L100 46.6L101.8 45.7L111.1 64.3L109.3 65.2Z" fill="#BCBCBC"/>
<path d="M79.0998 85.2L65.7998 69.2L67.3998 67.9L80.6998 83.9L79.0998 85.2Z" fill="#BCBCBC"/>
<path d="M305.4 110.5L321.9 97.9L323.1 99.5L306.6 112.1L305.4 110.5Z" fill="#BCBCBC"/>
<path d="M324 141.5L343 133L343.8 134.9L324.8 143.4L324 141.5Z" fill="#BCBCBC"/>
<path d="M335.1 176L355.5 172.1L355.9 174.1L335.5 178L335.1 176Z" fill="#BCBCBC"/>
<path d="M338.1 212.1L358.9 212.9L358.8 215L338 214.2L338.1 212.1Z" fill="#BCBCBC"/>
<path d="M22.1002 213.2L1.3002 214L1.2002 211.9L22.0002 211.1L22.1002 213.2Z" fill="#BCBCBC"/>
<path d="M332.9 247.9L353 253.4L352.5 255.4L332.4 249.9L332.9 247.9Z" fill="#BCBCBC"/>
<path d="M319.6 281.6L337.9 291.5L336.9 293.3L318.6 283.4L319.6 281.6Z" fill="#BCBCBC"/>
<path d="M298.9 311.4L314.4 325.2L313 326.7L297.5 312.9L298.9 311.4Z" fill="#BCBCBC"/>
<path d="M294 316.7L308.9 331.2L307.5 332.7L292.6 318.2L294 316.7Z" fill="white"/>
<path d="M61.7998 312.2L46.1998 326L44.7998 324.5L60.3998 310.8L61.7998 312.2Z" fill="#BCBCBC"/>
<path d="M66.7999 317.5L51.7999 332L50.3999 330.5L65.3999 316L66.7999 317.5Z" fill="white"/>
<defs>
<filter id="filter0_d_146_468" x="62.8247" y="93.025" width="234.55" height="234.55" filterUnits="userSpaceOnUse" color-interpolation-filters="sRGB">
<feFlood flood-opacity="0" result="BackgroundImageFix"/>
<feColorMatrix in="SourceAlpha" type="matrix" values="0 0 0 0 0 0 0 0 0 0 0 0 0 0 0 0 0 0 127 0" result="hardAlpha"/>
<feOffset dy="4"/>
<feGaussianBlur stdDeviation="2"/>
<feComposite in2="hardAlpha" operator="out"/>
<feColorMatrix type="matrix" values="0 0 0 0 0 0 0 0 0 0 0 0 0 0 0 0 0 0 0.25 0"/>
<feBlend mode="normal" in2="BackgroundImageFix" result="effect1_dropShadow_146_468"/>
<feBlend mode="normal" in="SourceGraphic" in2="effect1_dropShadow_146_468" result="shape"/>
</filter>
</defs>
</svg>
