<svg width="370" height="370" viewBox="0 0 370 370" fill="none" xmlns="http://www.w3.org/2000/svg">
<path d="M334.179 199.679L364.014 202.815" stroke="white" stroke-linecap="round"/>
<path d="M333.154 207.465L362.784 212.158" stroke="white" stroke-linecap="round"/>
<path d="M331.723 215.187L361.067 221.424" stroke="white" stroke-linecap="round"/>
<path d="M329.89 222.823L358.867 230.587" stroke="white" stroke-linecap="round"/>
<path d="M327.659 230.353L356.191 239.623" stroke="white" stroke-linecap="round"/>
<path d="M325.038 237.755L353.045 248.506" stroke="white" stroke-linecap="round"/>
<path d="M322.032 245.01L349.439 257.213" stroke="white" stroke-linecap="round"/>
<path d="M318.651 252.099L345.382 265.718" stroke="white" stroke-linecap="round"/>
<path d="M314.904 259L340.885 274" stroke="white" stroke-width="3" stroke-linecap="round"/>
<path d="M310.801 265.696L335.961 282.035" stroke="white" stroke-linecap="round"/>
<path d="M306.353 272.168L330.624 289.801" stroke="white" stroke-linecap="round"/>
<path d="M301.572 278.398L324.887 297.278" stroke="white" stroke-linecap="round"/>
<path d="M296.472 284.37L318.767 304.444" stroke="white" stroke-linecap="round"/>
<path d="M291.066 290.066L312.28 311.279" stroke="white" stroke-linecap="round"/>
<path d="M285.37 295.472L305.444 317.766" stroke="white" stroke-linecap="round"/>
<path d="M279.398 300.572L298.278 323.886" stroke="white" stroke-linecap="round"/>
<path d="M273.168 305.353L290.802 329.623" stroke="white" stroke-linecap="round"/>
<path d="M266.696 309.801L283.035 334.961" stroke="white" stroke-linecap="round"/>
<path d="M260 313.904L275 339.885" stroke="white" stroke-width="3" stroke-linecap="round"/>
<path d="M253.099 317.651L266.719 344.381" stroke="white" stroke-linecap="round"/>
<path d="M246.011 321.032L258.213 348.438" stroke="white" stroke-linecap="round"/>
<path d="M238.756 324.037L249.507 352.044" stroke="white" stroke-linecap="round"/>
<path d="M231.353 326.658L240.624 355.19" stroke="white" stroke-linecap="round"/>
<path d="M223.823 328.889L231.588 357.867" stroke="white" stroke-linecap="round"/>
<path d="M216.188 330.722L222.425 360.067" stroke="white" stroke-linecap="round"/>
<path d="M208.466 332.153L213.159 361.784" stroke="white" stroke-linecap="round"/>
<path d="M200.68 333.178L203.816 363.014" stroke="white" stroke-linecap="round"/>
<path d="M169.321 333.178L166.185 363.014" stroke="white" stroke-linecap="round"/>
<path d="M161.535 332.153L156.842 361.784" stroke="white" stroke-linecap="round"/>
<path d="M153.813 330.722L147.576 360.067" stroke="white" stroke-linecap="round"/>
<path d="M146.177 328.889L138.413 357.867" stroke="white" stroke-linecap="round"/>
<path d="M138.647 326.658L129.377 355.19" stroke="white" stroke-linecap="round"/>
<path d="M131.245 324.037L120.494 352.044" stroke="white" stroke-linecap="round"/>
<path d="M123.99 321.032L111.788 348.438" stroke="white" stroke-linecap="round"/>
<path d="M116.901 317.651L103.282 344.381" stroke="white" stroke-linecap="round"/>
<path d="M110 313.904L95 339.885" stroke="white" stroke-width="3" stroke-linecap="round"/>
<path d="M103.304 309.801L86.965 334.961" stroke="white" stroke-linecap="round"/>
<path d="M96.8325 305.353L79.199 329.623" stroke="white" stroke-linecap="round"/>
<path d="M90.6021 300.572L71.7224 323.886" stroke="white" stroke-linecap="round"/>
<path d="M84.6304 295.472L64.5565 317.766" stroke="white" stroke-linecap="round"/>
<path d="M78.9341 290.066L57.7209 311.279" stroke="white" stroke-linecap="round"/>
<path d="M73.5283 284.37L51.234 304.444" stroke="white" stroke-linecap="round"/>
<path d="M68.4282 278.398L45.1138 297.278" stroke="white" stroke-linecap="round"/>
<path d="M63.6475 272.168L39.377 289.801" stroke="white" stroke-linecap="round"/>
<path d="M59.1997 265.696L34.0396 282.035" stroke="white" stroke-linecap="round"/>
<path d="M55.0962 259L29.1154 274" stroke="white" stroke-width="3" stroke-linecap="round"/>
<path d="M51.3491 252.099L24.6189 265.718" stroke="white" stroke-linecap="round"/>
<path d="M47.9683 245.01L20.5619 257.213" stroke="white" stroke-linecap="round"/>
<path d="M44.9629 237.755L16.9555 248.506" stroke="white" stroke-linecap="round"/>
<path d="M42.3418 230.353L13.8101 239.623" stroke="white" stroke-linecap="round"/>
<path d="M40.1113 222.823L11.1336 230.587" stroke="white" stroke-linecap="round"/>
<path d="M38.2778 215.187L8.9334 221.424" stroke="white" stroke-linecap="round"/>
<path d="M36.8467 207.465L7.21603 212.158" stroke="white" stroke-linecap="round"/>
<path d="M35.8218 199.679L5.98612 202.815" stroke="white" stroke-linecap="round"/>
<path d="M35.8218 168.321L5.98612 165.185" stroke="white" stroke-linecap="round"/>
<path d="M36.8467 160.535L7.21603 155.842" stroke="white" stroke-linecap="round"/>
<path d="M38.2778 152.813L8.9334 146.576" stroke="white" stroke-linecap="round"/>
<path d="M40.1113 145.177L11.1336 137.413" stroke="white" stroke-linecap="round"/>
<path d="M42.3418 137.647L13.8101 128.377" stroke="white" stroke-linecap="round"/>
<path d="M44.9629 130.245L16.9555 119.494" stroke="white" stroke-linecap="round"/>
<path d="M47.9683 122.989L20.5619 110.787" stroke="white" stroke-linecap="round"/>
<path d="M51.3491 115.901L24.6189 102.282" stroke="white" stroke-linecap="round"/>
<path d="M55.0962 109L29.1154 94" stroke="white" stroke-width="3" stroke-linecap="round"/>
<path d="M59.1997 102.304L34.0396 85.9649" stroke="white" stroke-linecap="round"/>
<path d="M63.6475 95.8322L39.377 78.1986" stroke="white" stroke-linecap="round"/>
<path d="M68.4282 89.6019L45.1138 70.7223" stroke="white" stroke-linecap="round"/>
<path d="M73.5283 83.6304L51.234 63.5565" stroke="white" stroke-linecap="round"/>
<path d="M78.9341 77.934L57.7209 56.7208" stroke="white" stroke-linecap="round"/>
<path d="M84.6304 72.5283L64.5565 50.2339" stroke="white" stroke-linecap="round"/>
<path d="M90.6021 67.4281L71.7224 44.1137" stroke="white" stroke-linecap="round"/>
<path d="M96.832 62.6475L79.1985 38.377" stroke="white" stroke-linecap="round"/>
<path d="M103.304 58.1994L86.965 33.0393" stroke="white" stroke-linecap="round"/>
<path d="M110 54.0962L95 28.1154" stroke="white" stroke-width="3" stroke-linecap="round"/>
<path d="M116.901 50.349L103.282 23.6188" stroke="white" stroke-linecap="round"/>
<path d="M123.989 46.9682L111.787 19.5618" stroke="white" stroke-linecap="round"/>
<path d="M131.245 43.963L120.494 15.9555" stroke="white" stroke-linecap="round"/>
<path d="M138.647 41.3415L129.377 12.8098" stroke="white" stroke-linecap="round"/>
<path d="M146.177 39.1111L138.413 10.1334" stroke="white" stroke-linecap="round"/>
<path d="M153.813 37.2779L147.576 7.93343" stroke="white" stroke-linecap="round"/>
<path d="M161.535 35.8467L156.842 6.21609" stroke="white" stroke-linecap="round"/>
<path d="M169.321 34.8217L166.185 4.98606" stroke="white" stroke-linecap="round"/>
<path d="M200.68 34.8217L203.816 4.98606" stroke="white" stroke-linecap="round"/>
<path d="M208.466 35.8467L213.159 6.21609" stroke="white" stroke-linecap="round"/>
<path d="M216.188 37.2779L222.425 7.93343" stroke="white" stroke-linecap="round"/>
<path d="M223.823 39.1111L231.588 10.1334" stroke="white" stroke-linecap="round"/>
<path d="M231.353 41.3415L240.624 12.8098" stroke="white" stroke-linecap="round"/>
<path d="M238.756 43.9629L249.507 15.9555" stroke="white" stroke-linecap="round"/>
<path d="M246.011 46.9682L258.213 19.5618" stroke="white" stroke-linecap="round"/>
<path d="M253.099 50.349L266.719 23.6188" stroke="white" stroke-linecap="round"/>
<path d="M260 54.0962L275 28.1154" stroke="white" stroke-width="3" stroke-linecap="round"/>
<path d="M266.696 58.1994L283.035 33.0393" stroke="white" stroke-linecap="round"/>
<path d="M273.168 62.6474L290.802 38.3769" stroke="white" stroke-linecap="round"/>
<path d="M279.398 67.4281L298.278 44.1137" stroke="white" stroke-linecap="round"/>
<path d="M285.37 72.5283L305.444 50.2339" stroke="white" stroke-linecap="round"/>
<path d="M291.066 77.934L312.28 56.7208" stroke="white" stroke-linecap="round"/>
<path d="M296.472 83.6304L318.767 63.5565" stroke="white" stroke-linecap="round"/>
<path d="M301.572 89.6019L324.887 70.7223" stroke="white" stroke-linecap="round"/>
<path d="M306.353 95.8322L330.624 78.1986" stroke="white" stroke-linecap="round"/>
<path d="M310.801 102.304L335.961 85.965" stroke="white" stroke-linecap="round"/>
<path d="M314.904 109L340.885 94" stroke="white" stroke-width="3" stroke-linecap="round"/>
<path d="M318.651 115.901L345.382 102.282" stroke="white" stroke-linecap="round"/>
<path d="M322.032 122.989L349.439 110.787" stroke="white" stroke-linecap="round"/>
<path d="M325.038 130.245L353.045 119.494" stroke="white" stroke-linecap="round"/>
<path d="M327.659 137.647L356.191 128.377" stroke="white" stroke-linecap="round"/>
<path d="M329.89 145.177L358.867 137.413" stroke="white" stroke-linecap="round"/>
<path d="M331.723 152.813L361.067 146.576" stroke="white" stroke-linecap="round"/>
<path d="M333.154 160.535L362.784 155.842" stroke="white" stroke-linecap="round"/>
<path d="M334.179 168.321L364.014 165.185" stroke="white" stroke-linecap="round"/>
<path d="M357.172 191.836V195H345.834V191.836H357.172ZM347.064 173.672V195H343.036V173.672H347.064ZM355.692 182.476V185.566H345.834V182.476H355.692ZM357.128 173.672V176.851H345.834V173.672H357.128Z" fill="white"/>
<path d="M14.2803 190.913L18.5283 173.672H20.8281L20.9746 177.305L16.4336 195H14.002L14.2803 190.913ZM11.5996 173.672L15.0859 190.854V195H12.4346L7.60059 173.672H11.5996ZM25.3838 190.781L28.8115 173.672H32.8252L27.9912 195H25.3398L25.3838 190.781ZM21.9268 173.672L26.1748 190.972L26.4238 195H23.9922L19.4658 177.29L19.6416 173.672H21.9268Z" fill="white"/>
<path d="M189.198 356.463C189.198 356.053 189.135 355.687 189.008 355.364C188.891 355.032 188.671 354.734 188.349 354.471C188.036 354.197 187.592 353.934 187.016 353.68C186.449 353.416 185.717 353.143 184.818 352.859C183.822 352.547 182.895 352.195 182.035 351.805C181.176 351.414 180.419 350.96 179.765 350.442C179.12 349.925 178.617 349.329 178.256 348.655C177.895 347.972 177.714 347.181 177.714 346.282C177.714 345.403 177.899 344.603 178.271 343.88C178.651 343.157 179.188 342.537 179.882 342.02C180.575 341.492 181.391 341.087 182.328 340.804C183.275 340.521 184.32 340.379 185.463 340.379C187.045 340.379 188.412 340.667 189.564 341.243C190.727 341.819 191.625 342.601 192.26 343.587C192.895 344.573 193.212 345.682 193.212 346.912H189.198C189.198 346.248 189.057 345.662 188.773 345.154C188.5 344.646 188.08 344.246 187.514 343.953C186.957 343.66 186.254 343.514 185.404 343.514C184.584 343.514 183.9 343.636 183.354 343.88C182.816 344.124 182.411 344.456 182.138 344.876C181.874 345.296 181.742 345.765 181.742 346.282C181.742 346.673 181.835 347.024 182.021 347.337C182.206 347.64 182.484 347.928 182.855 348.201C183.227 348.465 183.686 348.714 184.232 348.948C184.789 349.173 185.434 349.397 186.166 349.622C187.338 349.974 188.363 350.364 189.242 350.794C190.131 351.224 190.868 351.712 191.454 352.259C192.05 352.806 192.494 353.421 192.787 354.104C193.09 354.788 193.241 355.564 193.241 356.434C193.241 357.352 193.061 358.172 192.699 358.895C192.338 359.617 191.82 360.232 191.146 360.74C190.473 361.248 189.662 361.634 188.715 361.897C187.777 362.161 186.728 362.293 185.565 362.293C184.53 362.293 183.505 362.156 182.489 361.883C181.483 361.6 180.57 361.18 179.75 360.623C178.93 360.057 178.275 359.344 177.787 358.484C177.299 357.615 177.055 356.6 177.055 355.438H181.098C181.098 356.111 181.205 356.688 181.42 357.166C181.645 357.635 181.957 358.021 182.357 358.323C182.768 358.616 183.246 358.831 183.793 358.968C184.34 359.104 184.931 359.173 185.565 359.173C186.386 359.173 187.06 359.061 187.587 358.836C188.124 358.602 188.524 358.279 188.788 357.869C189.062 357.459 189.198 356.99 189.198 356.463Z" fill="white"/>
<path d="M193.175 6.67188V28H189.132L180.064 13.2051V28H176.036V6.67188H180.064L189.161 21.4814V6.67188H193.175Z" fill="white"/>
</svg>
