<svg width="175" height="175" viewBox="0 0 175 175" fill="none" xmlns="http://www.w3.org/2000/svg">
<path d="M173.385 94.0736L160.624 93.1598" stroke="black" stroke-width="1.4025" stroke-linecap="round"/>
<path d="M172.64 100.934L159.995 98.9993" stroke="black" stroke-width="1.4025" stroke-linecap="round"/>
<path d="M171.299 107.707L158.851 104.756" stroke="black" stroke-width="1.4025" stroke-linecap="round"/>
<path d="M169.439 114.357L157.272 110.407" stroke="black" stroke-width="1.4025" stroke-linecap="round"/>
<path d="M167.051 120.837L155.243 115.913" stroke="black" stroke-width="1.4025" stroke-linecap="round"/>
<path d="M164.124 127.09L152.754 121.227" stroke="black" stroke-width="1.4025" stroke-linecap="round"/>
<path d="M160.722 133.096L149.862 126.336" stroke="black" stroke-width="1.4025" stroke-linecap="round"/>
<path d="M156.849 138.808L146.566 131.197" stroke="black" stroke-width="1.4025" stroke-linecap="round"/>
<path d="M19.8347 139.906L29.9944 132.131" stroke="black" stroke-width="1.4025" stroke-linecap="round"/>
<path d="M15.8701 134.259L26.6211 127.324" stroke="black" stroke-width="1.4025" stroke-linecap="round"/>
<path d="M12.3542 128.319L23.6287 122.273" stroke="black" stroke-width="1.4025" stroke-linecap="round"/>
<path d="M9.34656 122.104L21.0725 116.99" stroke="black" stroke-width="1.4025" stroke-linecap="round"/>
<path d="M6.85095 115.666L18.9531 111.519" stroke="black" stroke-width="1.4025" stroke-linecap="round"/>
<path d="M4.86133 109.053L17.2598 105.9" stroke="black" stroke-width="1.4025" stroke-linecap="round"/>
<path d="M3.44873 102.294L16.0618 100.155" stroke="black" stroke-width="1.4025" stroke-linecap="round"/>
<path d="M2.56824 95.4497L15.3126 94.3317" stroke="black" stroke-width="1.4025" stroke-linecap="round"/>
<path d="M2.23364 88.5619L15.0261 88.4607" stroke="black" stroke-width="1.4025" stroke-linecap="round"/>
<path d="M2.46326 81.6717L15.2235 82.5859" stroke="black" stroke-width="1.4025" stroke-linecap="round"/>
<path d="M3.2074 74.8114L15.8536 76.7464" stroke="black" stroke-width="1.4025" stroke-linecap="round"/>
<path d="M4.54944 68.0379L16.9975 70.989" stroke="black" stroke-width="1.4025" stroke-linecap="round"/>
<path d="M6.40845 61.3881L18.576 65.339" stroke="black" stroke-width="1.4025" stroke-linecap="round"/>
<path d="M8.79724 54.9085L20.6049 59.8325" stroke="black" stroke-width="1.4025" stroke-linecap="round"/>
<path d="M11.7236 48.6549L23.0943 54.5178" stroke="black" stroke-width="1.4025" stroke-linecap="round"/>
<path d="M15.1255 42.6495L25.9867 49.4099" stroke="black" stroke-width="1.4025" stroke-linecap="round"/>
<path d="M18.9988 36.9377L29.2819 44.5482" stroke="black" stroke-width="1.4025" stroke-linecap="round"/>
<path d="M23.3331 31.5695L32.9735 39.9793" stroke="black" stroke-width="1.4025" stroke-linecap="round"/>
<path d="M28.0684 26.5537L37.0053 35.7076" stroke="black" stroke-width="1.4025" stroke-linecap="round"/>
<path d="M33.1869 21.9273L41.3625 31.7669" stroke="black" stroke-width="1.4025" stroke-linecap="round"/>
<path d="M38.676 17.7464L46.037 28.2103" stroke="black" stroke-width="1.4025" stroke-linecap="round"/>
<path d="M44.4734 14.0036L50.9687 25.0247" stroke="black" stroke-width="1.4025" stroke-linecap="round"/>
<path d="M50.5509 10.7291L56.1362 22.2386" stroke="black" stroke-width="1.4025" stroke-linecap="round"/>
<path d="M56.8872 7.98499L61.5223 19.9086" stroke="black" stroke-width="1.4025" stroke-linecap="round"/>
<path d="M63.4176 5.74115L67.0707 18.0013" stroke="black" stroke-width="1.4025" stroke-linecap="round"/>
<path d="M70.109 4.03314L72.7563 16.5489" stroke="black" stroke-width="1.4025" stroke-linecap="round"/>
<path d="M76.9167 2.89206L78.5456 15.5808" stroke="black" stroke-width="1.4025" stroke-linecap="round"/>
<path d="M83.7877 2.26996L84.3958 15.0489" stroke="black" stroke-width="1.4025" stroke-linecap="round"/>
<path d="M90.6809 2.23389L90.2759 15.0203" stroke="black" stroke-width="1.4025" stroke-linecap="round"/>
<path d="M97.5613 2.71909L96.1367 15.4321" stroke="black" stroke-width="1.4025" stroke-linecap="round"/>
<path d="M104.385 3.76202L101.94 16.3194" stroke="black" stroke-width="1.4025" stroke-linecap="round"/>
<path d="M111.101 5.36322L107.648 17.6809" stroke="black" stroke-width="1.4025" stroke-linecap="round"/>
<path d="M117.675 7.47928L113.234 19.4767" stroke="black" stroke-width="1.4025" stroke-linecap="round"/>
<path d="M124.044 10.1485L118.646 21.7468" stroke="black" stroke-width="1.4025" stroke-linecap="round"/>
<path d="M130.177 13.3148L123.861 24.4396" stroke="black" stroke-width="1.4025" stroke-linecap="round"/>
<path d="M136.046 16.9476L128.854 27.5279" stroke="black" stroke-width="1.4025" stroke-linecap="round"/>
<path d="M141.585 21.0628L133.568 31.0323" stroke="black" stroke-width="1.4025" stroke-linecap="round"/>
<path d="M146.781 25.6007L137.992 34.8972" stroke="black" stroke-width="1.4025" stroke-linecap="round"/>
<path d="M151.61 30.527L142.106 39.0901" stroke="black" stroke-width="1.4025" stroke-linecap="round"/>
<path d="M156.013 35.8395L145.854 43.6146" stroke="black" stroke-width="1.4025" stroke-linecap="round"/>
<path d="M159.978 41.487L149.227 48.4207" stroke="black" stroke-width="1.4025" stroke-linecap="round"/>
<path d="M163.494 47.4261L152.219 53.4723" stroke="black" stroke-width="1.4025" stroke-linecap="round"/>
<path d="M166.502 53.641L154.776 58.7557" stroke="black" stroke-width="1.4025" stroke-linecap="round"/>
<path d="M168.997 60.079L156.895 64.2271" stroke="black" stroke-width="1.4025" stroke-linecap="round"/>
<path d="M170.986 66.6923L158.588 69.8449" stroke="black" stroke-width="1.4025" stroke-linecap="round"/>
<path d="M172.399 73.4513L159.786 75.5905" stroke="black" stroke-width="1.4025" stroke-linecap="round"/>
<path d="M173.28 80.2955L160.535 81.414" stroke="black" stroke-width="1.4025" stroke-linecap="round"/>
<path d="M173.614 87.1832L160.822 87.2844" stroke="black" stroke-width="1.4025" stroke-linecap="round"/>
</svg>
