<svg viewBox="0 0 1190 1706" xmlns="http://www.w3.org/2000/svg" style="width: 100%; height: auto;">
    <g id="stars"></g>
    <g id="Telescopio">
        <path id="Trazado" fill="#777777" stroke="none" d="M 434.399994 10.133301 C 430.399994 16.266724 422.533325 28.93335 416.799988 38.266724 C 411.066681 47.733276 406.133331 55.333374 405.733337 55.333374
                                                           C 405.466675 55.333374 394.533325 46.800049 381.600006 36.266724 C 352.666656 12.800049 352.399994 12.666626 347.200012 12.666626
                                                           C 342.666656 12.666626 332.799988 20.133301 304.533325 44.93335 C 271.600006 73.733276 240.266663 112.133301 216.133331 153.199951
                                                           C 205.333328 171.599976 190.666672 201.599976 190.666672 205.333374 C 190.666672 207.333374 192.399994 210.533325 195.066666 213.199951
                                                           C 197.333328 215.733276 267.733337 272.800049 351.333344 340.133301 C 434.933319 407.333374 505.333344 464 507.600006 466.133301 L 512 469.866699
                                                           L 508.666656 473.733276 C 506.799988 476 505.333344 478.266724 505.333344 479.06665 C 505.333344 479.733276 510.666656 484.666626 517.333313 490.133301
                                                           C 523.866638 495.599976 529.333313 500.266724 529.333313 500.666626 C 529.333313 501.06665 526.266663 505.199951 522.400024 509.866699
                                                           C 515.599976 518.266724 515.599976 518.400024 518.400024 520.533325 C 528.533325 528.400024 550.533325 546.800049 550.666687 547.466675
                                                           C 550.666687 547.866699 521.200012 583.733276 485.200012 627.333374 L 419.600006 706.400024 L 423.466675 709.866638
                                                           C 425.600006 711.733337 429.333344 714.93335 431.733337 716.93335 C 434.799988 719.466675 435.866669 721.200012 435.066681 722.533325
                                                           C 434.533325 723.466675 414.799988 746.93335 391.333344 774.533325 C 365.333344 805.200012 348.133331 824.400024 347.066681 824
                                                           C 346.133331 823.599976 344.533325 822.93335 343.466675 822.533325 C 342.266663 822.133362 338.933319 825.200012 334 831.200012
                                                           C 329.733337 836.400024 326 840.666687 325.466675 840.666687 C 325.066681 840.666687 320.266663 837.06665 315.066681 832.799988
                                                           C 303.200012 823.06665 298.399994 821.333313 291.200012 823.599976 C 286.933319 825.06665 282.933319 829.06665 268.266663 846.666687
                                                           C 258.399994 858.400024 249.866669 869.333313 249.199997 871.06665 C 247.333328 876 247.866669 883.733337 250.399994 887.599976
                                                           C 251.600006 889.599976 258 895.466675 264.399994 900.666687 L 276.133331 910.266663 L 273.466675 913.200012 C 271.333344 915.333313 269.600006 916 266.666656 915.599976
                                                           C 262 914.93335 260 918.133362 262.399994 922.133362 C 263.333344 923.466675 264 926.133362 264 928 C 264 929.733337 265.600006 933.06665 267.733337 935.333313
                                                           C 270.799988 938.799988 272.799988 939.733337 280.399994 940.799988 C 285.466675 941.466675 290.133331 941.733337 290.799988 941.200012
                                                           C 292.399994 940.266663 292.399994 935.733337 290.666656 934.666687 C 288.666656 933.466675 289.066681 932 291.866669 928.533325 L 294.399994 925.333313
                                                           L 307.466675 936.133362 C 314.799988 942 322 947.599976 323.600006 948.400024 C 327.866669 950.666687 336.133331 950.266663 340.133331 947.599976
                                                           C 344 945.06665 375.333344 907.599976 378.133331 902.133362 C 382.799988 893.333313 379.333344 885.466675 366 874.666687
                                                           C 360.933319 870.400024 356.533325 866.93335 356.399994 866.799988 C 356.133331 866.533325 359.600006 862.133362 364.133331 856.93335
                                                           L 372.133331 847.333313 L 369.333344 843.333313 L 366.399994 839.200012 L 373.733337 830.266663 C 392.399994 807.200012 452.266663 736 453.200012 735.599976
                                                           C 453.733337 735.466675 457.333344 737.733337 461.066681 740.666687 L 467.866669 746.133362 L 483.466675 727.333313 C 492.133331 717.06665 499.466675 708.666687 500 708.666687
                                                           C 501.066681 708.666687 520.133362 721.599976 522.133362 723.733337 C 523.200012 724.93335 522.93335 736.400024 520.799988 767.333313 L 518 809.333313 L 493.333344 810
                                                           L 468.666656 810.666687 L 468.266663 839.866638 L 468 869.06665 L 464 865.333313 L 460.133331 861.599976 L 446.399994 863.200012
                                                           C 438.799988 864.133362 432.266663 865.333313 431.733337 865.733337 C 431.333344 866.266663 381.600006 960.533325 321.333344 1075.333252
                                                           C 260.933319 1190.133301 165.46666 1371.733398 109.066666 1479.06665 C 50.266666 1591.06665 5.2 1678.400024 3.333333 1684 C 1.466667 1689.333374 0 1695.599976 0 1697.733276
                                                           C 0 1702.266724 3.6 1706 8.133333 1706 C 13.333333 1706 24 1700.133301 33.466667 1692.266724 C 41.866665 1685.06665 48.400002 1674.800049 272 1318.800049 L 502 952.666687
                                                           L 517.599976 952.666687 C 526.266663 952.666687 533.333313 953.06665 533.333313 953.466675 C 533.333313 956.133362 504 1366.133301 503.466675 1370.266602
                                                           C 503.066681 1374 503.733337 1376.533325 505.866669 1379.599976 C 511.333344 1387.866699 519.333313 1387.733398 525.599976 1379.333374
                                                           C 527.466675 1376.800049 536.93335 1326.666626 565.333313 1169.333252 C 585.866638 1055.599976 603.06665 960.400024 603.466675 957.599976 L 604.400024 952.666687
                                                           L 621.466675 952.666687 C 638.133362 952.666687 640.266663 953.200012 637.200012 956.266663 C 636.266663 957.200012 683.866638 1056 802.533325 1298.800049 L 969.333313 1640
                                                           L 980.400024 1650.533325 C 996 1665.466675 1002.533325 1668.93335 1006.533325 1664.133301 C 1008.666687 1661.599976 1010.666687 1642.800049 1010.666687 1624.266724
                                                           L 1010.666687 1608.666626 L 906.799988 1375.599976 C 688.93335 886.93335 700.799988 913.333313 698.133362 913.733337 C 696.799988 914 691.200012 913.200012 685.866638 912
                                                           L 676 909.866638 L 675.733337 860.266663 L 675.333313 810.666687 L 650.400024 810.266663 L 625.599976 810 L 625.06665 802.93335
                                                           C 624.799988 799.200012 624.666687 795.733337 624.799988 795.466675 C 625.06665 795.333313 627.333313 796.666687 629.866638 798.666687
                                                           C 632.400024 800.666687 635.06665 802 635.866638 801.733337 C 636.533325 801.599976 640.133362 797.599976 644 792.93335
                                                           C 647.733337 788.400024 651.466675 784.666687 652.133362 784.666687 C 652.799988 784.666687 661.200012 790.93335 670.799988 798.666687 L 688.133362 812.533325
                                                           L 691.733337 808.266663 C 699.599976 799.06665 700.533325 801.06665 680.666687 785.333313 L 662.533325 771.06665 L 668.266663 764.400024
                                                           C 679.333313 751.466675 679.333313 751.466675 676.533325 749.200012 C 675.06665 748.133362 662 738.533325 647.333313 727.733337
                                                           C 632.666687 716.93335 617.06665 704.533325 612.666687 700 C 607.466675 694.799988 600.93335 690 594 686.400024 C 588.133362 683.333313 578.400024 677.199951 572.400024 672.800049
                                                           C 561.733337 664.93335 561.599976 664.800049 562.93335 660.93335 C 564.93335 655.866699 563.333313 648.400024 559.333313 644.133301 L 556 640.533325 L 559.599976 636
                                                           C 561.733337 633.333374 563.733337 631.866699 564.666687 632.533325 C 565.333313 633.06665 607.866638 664.93335 659.06665 703.200012 L 752.266663 772.799988 L 750.133362 776
                                                           C 748.93335 777.866638 747.06665 780.799988 745.866638 782.666687 C 744.666687 784.400024 743.733337 788.266663 743.733337 790.93335
                                                           C 743.733337 795.200012 744.666687 796.799988 749.200012 800.799988 C 760 810.400024 768.533325 812 774.400024 805.599976
                                                           C 775.866638 804 781.866638 795.733337 787.866638 787.333313 C 802.666687 766.400024 802.533325 762.133362 787.599976 752.533325
                                                           C 776.93335 745.599976 773.599976 746.133362 765.200012 755.466675 L 759.06665 762.266663 L 665.599976 692.533325 C 614.133362 654.266724 572 622.533325 572 622
                                                           C 572 620.666626 598.93335 588.666626 600.133362 588.666626 C 600.666687 588.666626 610 596 620.799988 604.800049 C 636.93335 618.133301 640.666687 620.666626 641.866638 619.06665
                                                           C 646.93335 612.266724 653.866638 604.666626 654.799988 604.666626 C 655.466675 604.666626 661.200012 608.666626 667.466675 613.599976 L 679.06665 622.533325 L 682.533325 618.266724
                                                           C 686.666687 613.06665 687.866638 612.93335 692 617.333374 C 693.733337 619.199951 695.866638 620.533325 696.799988 620.133301
                                                           C 697.599976 619.866699 771.466675 678.533325 860.93335 750.533325 C 950.400024 822.533325 1024.93335 882.533325 1026.666626 883.733337
                                                           C 1028.533325 884.93335 1031.466675 886 1033.333374 886 C 1037.199951 886 1067.599976 866.400024 1084.266724 853.200012
                                                           C 1128.800049 818.133362 1159.333374 776.93335 1179.199951 725.333313 C 1182.666626 716.533325 1186.666626 706.266663 1188 702.666687
                                                           C 1191.599976 693.466675 1191.333374 690.666687 1186.400024 685.466675 C 1184 682.93335 1139.466675 646.533325 1087.333374 604.666626
                                                           C 894 449.199951 866.400024 426.666626 865.466675 424.533325 C 864.400024 421.599976 841.333313 403.199951 840 404 C 839.333313 404.400024 823.06665 392 803.733337 376.400024
                                                           C 784.400024 360.800049 752.93335 335.333374 733.733337 320 C 709.200012 300.266724 699.333313 291.599976 700.266663 290.400024
                                                           C 701.06665 289.333374 697.599976 285.733276 688.666687 278.533325 C 679.333313 271.06665 675.466675 268.666626 674.666687 269.866699
                                                           C 674 271.06665 661.200012 261.599976 630.266663 236.533325 L 586.799988 201.466675 L 590.799988 196.133301 L 594.799988 190.666626 L 588.133362 184.666626
                                                           C 584.400024 181.333374 581.333313 178.266724 581.333313 177.733276 C 581.333313 177.199951 583.866638 172.800049 586.799988 168
                                                           C 592.133362 159.599976 592.400024 159.333374 594.93335 161.599976 C 597.200012 163.599976 598 163.599976 601.733337 162.133301
                                                           C 604.133362 161.199951 606.93335 160.133301 608.133362 159.733276 C 609.333313 159.466675 628 173.466675 657.733337 197.199951 L 705.333313 235.333374 L 712 232
                                                           C 724.133362 225.866699 732 215.199951 734.133362 202.133301 L 734.93335 197.06665 L 686.799988 158.800049 L 638.666687 120.400024 L 638.93335 115.466675 L 639.333313 110.400024
                                                           L 584.666687 66.666626 C 554.666687 42.666626 529.333313 22.400024 528.400024 21.733276 C 524.400024 18.666626 504.133331 33.866699 495.466675 46.266724
                                                           C 490.799988 53.199951 483.733337 70.93335 484.933319 72.93335 C 485.200012 73.466675 498.266663 84.266724 514 96.800049 C 529.733337 109.333374 542.666687 120 542.666687 120.400024
                                                           C 542.666687 121.466675 529.866638 132.666626 528.666687 132.666626 C 528.266663 132.666626 525.466675 130.800049 522.666687 128.533325 L 517.466675 124.266724
                                                           L 510.933319 129.733276 L 504.399994 135.199951 L 479.466675 115.06665 C 465.600006 104 454.133331 94.133301 453.866669 93.333374
                                                           C 453.466675 92.533325 460.799988 78.666626 470 62.533325 C 479.466675 46 486.666656 31.866699 486.666656 29.866699 C 486.666656 24 482.666656 14.533325 478.399994 10.133301
                                                           C 471.600006 3.199951 464.799988 0.400024 452.533325 -0.400024 L 441.466675 -1.06665 L 434.399994 10.133301 Z M 567.06665 140.800049
                                                           C 576 148.266724 583.599976 154.533325 583.866638 154.800049 C 584.533325 155.333374 574.666687 171.333374 573.599976 171.333374
                                                           C 572.799988 171.333374 541.866638 145.466675 536.666687 140.400024 C 535.733337 139.599976 537.599976 137.199951 542 133.333374
                                                           C 545.733337 130.133301 549.06665 127.466675 549.733337 127.333374 C 550.266663 127.333374 558 133.466675 567.06665 140.800049 Z"/>
    </g>
</svg>
