<?xml version="1.0" encoding="utf-8"?>
<svg id="Layer_1" data-name="Layer 1" xmlns="http://www.w3.org/2000/svg" viewBox="0 0 200 200">
  <defs>
    <style>.cls-1{fill:#a3a3a3;}.cls-2{fill:#e6e6e6;}.cls-3{fill:#f83;}.cls-4{fill:#ffb92f;}</style>
  </defs>
  <title>Artboard 35</title>
  <g id="_Group_" data-name="&lt;Group&gt;" transform="matrix(1, 0, 0, 1, -1.238838, -0.655102)">
    <path id="_Compound_Path_" data-name="&lt;Compound Path&gt;" class="cls-1" d="M160.07,100,195.6,70.46l-47.1-4,10.38-43.91L118.16,45.31,99.8,4.2,81,45.31,40.72,22.56,51.1,66.47,4,70.46,39.53,100,4,129.54l47.1,4L40.72,177.44l40.72-22.75L99.8,195.8l18.76-41.11,40.72,22.75L148.9,133.53l47.1-4ZM99.8,151.89A51.89,51.89,0,1,1,151.69,100,51.79,51.79,0,0,1,99.8,151.89Z" style="fill: rgb(255, 136, 51);"/>
    <path id="_Path_" data-name="&lt;Path&gt;" class="cls-2" d="M99.8,56.09A43.91,43.91,0,1,0,143.71,100,43.78,43.78,0,0,0,99.8,56.09Z" style="fill: rgb(255, 185, 47);"/>
  </g>
  <path class="cls-1" d="M 40.314 153.777 C 32.64 153.783 26.022 159.169 24.458 166.682 C 20.039 167.783 16.535 171.84 16.535 176.636 C 16.583 182.215 21.096 186.726 26.675 186.771 L 56.723 186.771 C 58.384 186.777 60.024 186.399 61.514 185.665 C 70.776 181.749 72.325 169.275 64.303 163.212 C 62.065 161.521 59.342 160.595 56.537 160.571 C 55.598 160.601 54.664 160.724 53.749 160.938 C 50.749 156.431 45.686 153.73 40.272 153.749 L 40.314 153.777 Z" style=""/>
  <path class="cls-2" d="M 62.32 172.744 C 62.369 168.462 58.931 164.954 54.649 164.918 C 53.361 164.894 52.091 165.212 50.966 165.839 C 48.205 158.341 38.363 156.643 33.25 162.782 C 31.642 164.714 30.788 167.163 30.849 169.676 L 29.936 169.676 C 25.802 169.676 23.217 174.152 25.285 177.733 C 26.244 179.395 28.017 180.419 29.936 180.419 L 54.954 180.419 C 55.854 180.378 56.738 180.17 57.562 179.804 C 60.446 178.65 62.333 175.851 62.32 172.744 Z" style=""/>
</svg>