<svg xmlns="http://www.w3.org/2000/svg" viewBox="0 0 24 24" fill="currentColor">
    <path fill-rule="evenodd" d="M12 2C6.477 2 2 6.484 2 12.017c0 4.417 2.865 8.176 6.83 9.504.475.087.643-.207.643-.464 0-.232-.007-.847-.011-1.688-2.782.605-3.374-1.34-3.374-1.34-.454-1.155-1.11-1.463-1.11-1.463-.907-.63.069-.616.069-.616 1.002.07 1.53.97 1.53.97.884 1.516 2.327 1.079 2.9.825.09-.64.348-1.078.632-1.328-2.218-.25-4.542-1.109-4.542-4.935 0-1.088.39-1.977 1.028-2.671-.102-.252-.446-1.264.098-2.636 0 0 .837-.268 2.742 1.022A9.99 9.99 0 0 1 12 6.8c.85 0 1.7.112 2.497.334 1.903-1.29 2.739-1.022 2.739-1.022.544 1.372.2 2.384.098 2.636.64.694 1.025 1.583 1.025 2.671 0 3.834-2.329 4.681-4.549 4.934.358.309.678.918.678 1.855 0 1.34-.012 2.418-.012 2.745 0 .258.167.556.648.455C20.133 20.187 23 16.425 23 12.017 23 6.484 18.522 2 13 2h-1Z" clip-rule="evenodd" />
</svg>
