<svg width="25" height="25" viewBox="0 0 25 25" fill="none" xmlns="http://www.w3.org/2000/svg">
<path d="M22.846 0C22.386 1.164 21.946 2.247 21.533 3.334C20.4807 6.20278 20.0873 9.27155 20.382 12.313C20.6787 14.3794 20.5511 16.4846 20.007 18.5C19.5102 20.2177 18.505 21.7448 17.1236 22.8802C15.7422 24.0157 14.0494 24.7062 12.268 24.861C10.4627 25.1724 8.60555 24.9384 6.93396 24.1888C5.26237 23.4392 3.85229 22.2082 2.884 20.653C1.9994 19.3952 1.43655 17.9398 1.24472 16.4141C1.05288 14.8884 1.23789 13.3389 1.78358 11.9013C2.32927 10.4637 3.21899 9.18167 4.37488 8.16754C5.53077 7.1534 6.91761 6.43802 8.41401 6.084C10.247 5.584 12.136 5.299 13.982 4.852C17.0042 4.02554 19.8066 2.54188 22.189 0.507C22.389 0.358 22.581 0.207 22.846 0Z" fill="#e2e8f0"/>
</svg>
