<svg width="59" height="38" viewBox="0 0 59 38" fill="none" xmlns="http://www.w3.org/2000/svg">
<g clip-path="url(#clip0_5_63)">
<path d="M43.0328 11.3297C44.2935 14.3742 48.7448 14.3754 50.0055 11.3297L50.0738 11.1648C50.396 10.2806 50.3749 9.30781 50.0149 8.43839L46.5191 0L43.0234 8.43957C42.6625 9.30963 42.6415 10.2835 42.9644 11.1683L43.0328 11.3309V11.3297Z" fill="#19AADB"/>
<path d="M31.5687 16.4302C30.8089 16.4303 30.0648 16.6478 29.4245 17.057C28.7842 17.4661 28.2744 18.05 27.9551 18.7396L27.8291 19.0424L25.6871 24.2147L21.9191 15.1189C20.6467 12.0461 16.1412 12.0473 14.8687 15.1201L11.0984 24.2242L7.32692 15.1201C6.53162 13.1996 4.26473 12.2617 2.34542 13.057C0.426101 13.8511 -0.51176 16.118 0.283537 18.0373L7.56256 35.6116C8.81854 38.7233 13.383 38.7221 14.6342 35.6081L18.3939 26.5323L22.1018 35.4832C23.2918 38.7704 28.0871 38.7669 29.2736 35.4797L32.5867 27.4796L34.3517 23.2733L35.557 20.4008C35.5523 19.3461 35.1301 18.3363 34.3826 17.5921C33.6352 16.848 32.6234 16.4302 31.5687 16.4302Z" fill="url(#paint0_linear_5_63)"/>
<path d="M50.8067 34.2755C48.784 34.2755 46.8441 33.472 45.4138 32.0417C43.9836 30.6115 43.1801 28.6716 43.1801 26.6489C43.1801 26.5806 43.1836 26.5123 43.186 26.4439V20.4173C43.186 16.9981 40.8248 13.9112 37.5187 13.0252C33.9334 12.065 30.0806 13.9006 28.5584 17.2845L28.4052 17.6556L27.9551 18.7396C28.3365 17.9172 28.9868 17.2494 29.7988 16.8463C30.6108 16.4432 31.5359 16.329 32.4215 16.5224C33.3072 16.7158 34.1004 17.2053 34.6704 17.9102C35.2405 18.615 35.5532 19.4932 35.557 20.3997L35.5605 20.3891V26.5558C35.5605 32.5483 40.3759 37.6546 46.3683 37.9834C52.3207 38.3086 57.6615 33.8266 58.3543 27.9096C58.3842 27.6485 58.405 27.3863 58.4168 27.1237C58.2963 29.0603 57.442 30.8781 56.0281 32.2068C54.6142 33.5356 52.747 34.2754 50.8067 34.2755Z" fill="url(#paint1_linear_5_63)"/>
<path d="M54.6253 12.766H54.6182C53.6076 12.7669 52.6387 13.169 51.9245 13.8839C51.2102 14.5989 50.809 15.5681 50.809 16.5787V26.5641C50.809 28.6413 49.0747 30.3756 46.9975 30.3756C44.9203 30.3756 43.1859 28.6413 43.1859 26.5641V26.4427C43.1836 26.5111 43.1801 26.5794 43.1801 26.6477C43.1708 27.657 43.362 28.658 43.7425 29.5928C44.1231 30.5276 44.6853 31.3776 45.3968 32.0935C46.1083 32.8094 46.9547 33.3769 47.8872 33.7633C48.8196 34.1496 49.8194 34.347 50.8287 34.344C51.838 34.3411 52.8367 34.1378 53.7668 33.746C54.697 33.3542 55.5401 32.7817 56.2473 32.0617C56.9546 31.3416 57.5119 30.4883 57.8869 29.5513C58.2619 28.6143 58.4472 27.6121 58.4321 26.603L58.4344 26.5641V16.5763C58.4338 15.566 58.0324 14.5973 57.3182 13.8827C56.604 13.1681 55.6355 12.7672 54.6253 12.766Z" fill="url(#paint2_linear_5_63)"/>
</g>
<defs>
<linearGradient id="paint0_linear_5_63" x1="-112.253" y1="953.401" x2="2979.58" y2="2078.75" gradientUnits="userSpaceOnUse">
<stop offset="0.2349" stop-color="#D51F2A"/>
<stop offset="1" stop-color="#F68839"/>
</linearGradient>
<linearGradient id="paint1_linear_5_63" x1="27.9856" y1="1274.26" x2="3074.18" y2="1274.26" gradientUnits="userSpaceOnUse">
<stop offset="0.4257" stop-color="#FDB930"/>
<stop offset="0.869" stop-color="#85C441"/>
</linearGradient>
<linearGradient id="paint2_linear_5_63" x1="805.884" y1="2170.69" x2="805.884" y2="12.7648" gradientUnits="userSpaceOnUse">
<stop stop-color="#19AADB"/>
<stop offset="0.9949" stop-color="#1756A7"/>
</linearGradient>
<clipPath id="clip0_5_63">
<rect width="59" height="38" fill="white"/>
</clipPath>
</defs>
</svg>
